<?xml version="1.0" encoding="utf-8" ?>	<!-- Generator: Assembly 2.2 - http://assemblyapp.co -->	<svg version="1.1" xmlns="http://www.w3.org/2000/svg" xmlns:xlink="http://www.w3.org/1999/xlink" width="2048.00" height="2048.00" viewBox="0 0 2048.0 2048.0">		<g id="document" transform="matrix(1,0,0,1,1024.0,1024.0)">			<g>				<path d="M-563.338,403.219 L535.68,403.219 C586.735,403.219 627.041,361.569 624.354,310.515 C610.919,-22.684 612.262,-361.257 657.943,-554.727 C687.501,-679.677 296.53,-447.244 -12.4853,-447.244 C-321.5,-447.244 -712.471,-679.677 -682.913,-554.727 C-637.233,-363.944 -638.576,-26.7147 -654.699,309.171 C-656.042,360.226 -614.393,403.219 -563.338,403.219 Z " fill="#000000" fill-opacity="1.00" />				<path d="M-853.548,261.495 M-853.548,261.495 L-432.831,170.549 M-853.548,70.2096 M-853.548,70.2096 L-432.831,70.2097 M-853.548,-121.076 M-853.548,-121.076 L-432.831,-31.698 " fill="none" stroke-width="72.20" stroke="#000000" stroke-linecap="round" stroke-linejoin="round" />				<path d="M853.548,261.495 M853.548,261.495 L432.831,170.549 M853.548,70.2098 M853.548,70.2098 L432.831,70.2097 M853.548,-121.075 M853.548,-121.075 L432.831,-31.6979 " fill="none" stroke-width="72.20" stroke="#000000" stroke-linecap="round" stroke-linejoin="round" />			</g>			<path d="M-69.8518,4.14301 L-22.0039,-39.4329 C-142.273,-171.493 -347.063,-181.062 -479.123,-60.7923 L-435.547,-12.9445 C-329.803,-109.247 -166.155,-101.601 -69.8518,4.14301 Z " fill="#ffffff" fill-opacity="1.00" />		</g>	</svg>